<svg width="19" height="12" xmlns="http://www.w3.org/2000/svg"><path d="M7.817 5.367c.394-.198.692-.419.895-.659.363-.43.543-1 .543-1.706 0-.686-.18-1.275-.538-1.768C8.12.432 7.107.021 5.674 0H0v11.583h5.29c.597 0 1.15-.05 1.66-.156.51-.105.952-.298 1.326-.582.333-.246.61-.55.83-.91.35-.545.525-1.162.525-1.848 0-.666-.153-1.232-.457-1.697-.307-.467-.759-.807-1.357-1.023zM2.34 2.011h2.556c.561 0 1.024.061 1.388.181.42.174.63.53.63 1.071 0 .485-.16.824-.477 1.016-.32.192-.734.288-1.242.288H2.34V2.011zM6.38 9.37c-.283.135-.68.204-1.19.204h-2.85v-3.09h2.89c.503.005.895.071 1.175.197.499.226.747.64.747 1.243 0 .712-.257 1.192-.772 1.446zm5.76-8.83h5.031v1.442h-5.031V.54zm6.087 3.92c.359.51.589 1.1.694 1.771.061.393.086.961.076 1.7h-6.326c.038.859.337 1.462.909 1.807.346.215.763.323 1.252.323.515 0 .936-.131 1.26-.392.177-.143.333-.34.467-.59h2.318c-.061.507-.343 1.024-.84 1.548-.779.833-1.867 1.249-3.267 1.249-1.157 0-2.176-.35-3.058-1.054-.886-.702-1.326-1.846-1.326-3.428 0-1.485.399-2.623 1.196-3.415.798-.79 1.832-1.189 3.104-1.189.756 0 1.436.135 2.042.403.607.266 1.106.69 1.5 1.267zm-5.5 1.994c.082-.558.285-1 .605-1.326.32-.326.774-.49 1.355-.49.536 0 .984.154 1.348.461.36.31.564.76.605 1.355h-3.914z" fill="#61687A" fill-rule="evenodd" opacity=".4"/></svg>