<svg width="21" height="25" xmlns="http://www.w3.org/2000/svg"><g stroke="#75FED0" fill="none" fill-rule="evenodd"><path d="M2.24 15.675A10.45 10.45 0 0 1 1 10.71C1 5.15 5.255 1.5 10.5 1.5S20 5.15 20 10.71a10.45 10.45 0 0 1-1.24 4.965"/><path d="M13.955 2c0 .89-1.955.29-3.455.29S7.045 2.895 7.045 2 9 1 10.5 1s3.455.12 3.455 1zM16.61 18.6c.95.09 1.795-.605 1.89-1.555l.365-3.5a1.745 1.745 0 0 0-1.535-1.925 1.735 1.735 0 0 0-1.9 1.555l-.365 3.5A1.745 1.745 0 0 0 16.61 18.6zM4.39 18.6a1.735 1.735 0 0 1-1.89-1.555l-.365-3.5A1.745 1.745 0 0 1 3.67 11.62a1.735 1.735 0 0 1 1.9 1.555l.365 3.5A1.745 1.745 0 0 1 4.39 18.6zM10.5 23.5c2.25-1.3 4.545-2.725 6.175-4.795"/><path d="M11.93 22.5a.5.5 0 0 1-.195.685l-.93.5a.555.555 0 0 1-.735-.185.5.5 0 0 1 .195-.685l.93-.5a.555.555 0 0 1 .73.185h.005z"/></g></svg>