<svg width="92" height="23" xmlns="http://www.w3.org/2000/svg"><g fill="#FFF" fill-rule="evenodd"><path d="M20.827 16.393l-1.575-3.199-3.132 1.61a1.01 1.01 0 0 0-.433 1.343.97.97 0 0 0 1.314.443l.367-.189c-.807 2.393-3.088 4.195-5.87 4.533V10.51h1.579a.99.99 0 0 0 .978-1 .99.99 0 0 0-.978-1h-1.579V7.446c1.574-.44 2.734-1.909 2.734-3.654C14.232 1.701 12.567 0 10.52 0S6.808 1.7 6.808 3.792c0 1.745 1.16 3.214 2.734 3.654V8.51H8.043a.99.99 0 0 0-.978 1c0 .552.438 1 .978 1h1.499v10.413c-2.715-.359-4.939-2.113-5.76-4.442l.214.11a.97.97 0 0 0 1.314-.444 1.01 1.01 0 0 0-.434-1.342l-3.131-1.61-1.576 3.198a1.01 1.01 0 0 0 .434 1.342.958.958 0 0 0 .44.107.976.976 0 0 0 .874-.55l.045-.09c1.212 3.362 4.604 5.794 8.598 5.794 3.942 0 7.295-2.37 8.548-5.663a.973.973 0 0 0 .847.509.954.954 0 0 0 .439-.107c.482-.248.676-.85.433-1.342zM8.765 3.793c0-.99.787-1.794 1.755-1.794.968 0 1.755.804 1.755 1.793 0 .988-.787 1.793-1.755 1.793-.968 0-1.755-.805-1.755-1.793zM43.656 19.288a6.106 6.106 0 0 1-2.384-.456 5.552 5.552 0 0 1-1.864-1.256 5.805 5.805 0 0 1-1.216-1.888 6.214 6.214 0 0 1-.44-2.352c0-.843.147-1.627.44-2.352a5.805 5.805 0 0 1 1.216-1.888 5.552 5.552 0 0 1 1.864-1.256 6.106 6.106 0 0 1 2.384-.456c.864 0 1.659.152 2.384.456a5.552 5.552 0 0 1 1.864 1.256 5.805 5.805 0 0 1 1.216 1.888c.293.725.44 1.51.44 2.352 0 .843-.147 1.627-.44 2.352a5.805 5.805 0 0 1-1.216 1.888 5.552 5.552 0 0 1-1.864 1.256 6.106 6.106 0 0 1-2.384.456zm0-1.44c.65 0 1.237-.12 1.76-.36a4.17 4.17 0 0 0 1.344-.968c.373-.405.661-.883.864-1.432.203-.55.304-1.133.304-1.752s-.101-1.203-.304-1.752a4.268 4.268 0 0 0-.864-1.432 4.17 4.17 0 0 0-1.344-.968c-.523-.24-1.11-.36-1.76-.36-.65 0-1.237.12-1.76.36a4.17 4.17 0 0 0-1.344.968 4.268 4.268 0 0 0-.864 1.432 5.021 5.021 0 0 0-.304 1.752c0 .619.101 1.203.304 1.752.203.55.49 1.027.864 1.432a4.17 4.17 0 0 0 1.344.968c.523.24 1.11.36 1.76.36zM59.2 19h-1.44v-1.088h-.032c-.277.405-.659.72-1.144.944a3.534 3.534 0 0 1-1.496.336 4.016 4.016 0 0 1-1.592-.304 3.518 3.518 0 0 1-1.216-.848 3.831 3.831 0 0 1-.776-1.264 4.402 4.402 0 0 1-.272-1.568c0-.565.09-1.09.272-1.576.181-.485.44-.907.776-1.264a3.571 3.571 0 0 1 1.216-.84 4.016 4.016 0 0 1 1.592-.304c.544 0 1.056.115 1.536.344.48.23.848.541 1.104.936h.032v-5.6h1.44V19zm-3.936-1.152c.384 0 .73-.067 1.04-.2.31-.133.57-.315.784-.544a2.4 2.4 0 0 0 .496-.832c.117-.325.176-.68.176-1.064s-.059-.739-.176-1.064a2.4 2.4 0 0 0-.496-.832 2.296 2.296 0 0 0-.784-.544c-.31-.133-.656-.2-1.04-.2s-.73.067-1.04.2c-.31.133-.57.315-.784.544a2.4 2.4 0 0 0-.496.832c-.117.325-.176.68-.176 1.064s.059.739.176 1.064a2.4 2.4 0 0 0 .496.832c.213.23.475.41.784.544.31.133.656.2 1.04.2zm7.4-2.112c0 .33.072.632.216.904.144.272.333.504.568.696.235.192.507.341.816.448.31.107.63.16.96.16.448 0 .837-.104 1.168-.312a3.76 3.76 0 0 0 .912-.824l1.088.832c-.8 1.035-1.92 1.552-3.36 1.552a4.176 4.176 0 0 1-1.624-.304 3.536 3.536 0 0 1-1.232-.84 3.726 3.726 0 0 1-.776-1.264 4.468 4.468 0 0 1-.272-1.576c0-.565.099-1.09.296-1.576.197-.485.47-.907.816-1.264.347-.357.76-.637 1.24-.84a3.99 3.99 0 0 1 1.568-.304c.672 0 1.24.117 1.704.352.464.235.845.541 1.144.92.299.379.515.805.648 1.28s.2.957.2 1.448v.512h-6.08zm4.544-1.152a3.037 3.037 0 0 0-.152-.88 1.936 1.936 0 0 0-.408-.696 1.88 1.88 0 0 0-.68-.464 2.488 2.488 0 0 0-.952-.168 2.358 2.358 0 0 0-2.184 1.432c-.112.261-.168.52-.168.776h4.544zm7.496-1.264a2.207 2.207 0 0 0-.632-.536c-.25-.144-.557-.216-.92-.216-.341 0-.637.072-.888.216-.25.144-.376.355-.376.632 0 .224.072.405.216.544.144.139.315.25.512.336.197.085.408.15.632.192l.576.112c.31.075.6.165.872.272.272.107.507.245.704.416.197.17.352.379.464.624.112.245.168.544.168.896 0 .427-.09.792-.272 1.096a2.293 2.293 0 0 1-.704.744c-.288.192-.616.33-.984.416a4.907 4.907 0 0 1-1.112.128c-.63 0-1.181-.096-1.656-.288-.475-.192-.899-.544-1.272-1.056l1.088-.896c.235.235.496.443.784.624.288.181.64.272 1.056.272.181 0 .365-.019.552-.056.187-.037.352-.096.496-.176.144-.08.261-.181.352-.304a.694.694 0 0 0 .136-.424.73.73 0 0 0-.2-.528 1.45 1.45 0 0 0-.48-.328 3.494 3.494 0 0 0-.592-.192 19.473 19.473 0 0 0-.552-.12 9.517 9.517 0 0 1-.88-.256 2.675 2.675 0 0 1-.736-.384 1.774 1.774 0 0 1-.512-.608c-.128-.245-.192-.55-.192-.912 0-.395.083-.739.248-1.032.165-.293.384-.536.656-.728.272-.192.581-.336.928-.432a3.91 3.91 0 0 1 2.52.144c.47.192.843.512 1.12.96l-1.12.848zm7.304 0a2.207 2.207 0 0 0-.632-.536c-.25-.144-.557-.216-.92-.216-.341 0-.637.072-.888.216-.25.144-.376.355-.376.632 0 .224.072.405.216.544.144.139.315.25.512.336.197.085.408.15.632.192l.576.112c.31.075.6.165.872.272.272.107.507.245.704.416.197.17.352.379.464.624.112.245.168.544.168.896 0 .427-.09.792-.272 1.096a2.293 2.293 0 0 1-.704.744c-.288.192-.616.33-.984.416a4.907 4.907 0 0 1-1.112.128c-.63 0-1.181-.096-1.656-.288-.475-.192-.899-.544-1.272-1.056l1.088-.896c.235.235.496.443.784.624.288.181.64.272 1.056.272.181 0 .365-.019.552-.056.187-.037.352-.096.496-.176.144-.08.261-.181.352-.304a.694.694 0 0 0 .136-.424.73.73 0 0 0-.2-.528 1.45 1.45 0 0 0-.48-.328 3.494 3.494 0 0 0-.592-.192 19.473 19.473 0 0 0-.552-.12 9.517 9.517 0 0 1-.88-.256 2.675 2.675 0 0 1-.736-.384 1.774 1.774 0 0 1-.512-.608c-.128-.245-.192-.55-.192-.912 0-.395.083-.739.248-1.032.165-.293.384-.536.656-.728.272-.192.581-.336.928-.432a3.91 3.91 0 0 1 2.52.144c.47.192.843.512 1.12.96l-1.12.848zm3.304-.976a4.009 4.009 0 0 1 1.408-.84 4.816 4.816 0 0 1 1.6-.28c.555 0 1.032.07 1.432.208.4.139.728.325.984.56.256.235.445.504.568.808.123.304.184.621.184.952v3.872c0 .267.005.512.016.736.01.224.027.437.048.64h-1.28a13.866 13.866 0 0 1-.048-1.152h-.032c-.32.49-.699.837-1.136 1.04-.437.203-.944.304-1.52.304a3.49 3.49 0 0 1-1.008-.144 2.46 2.46 0 0 1-.84-.432c-.24-.192-.43-.43-.568-.712a2.208 2.208 0 0 1-.208-.984c0-.49.11-.901.328-1.232.219-.33.517-.6.896-.808a4.325 4.325 0 0 1 1.328-.448 9.22 9.22 0 0 1 1.624-.136h1.056v-.32a1.58 1.58 0 0 0-1.008-1.464 2.128 2.128 0 0 0-.8-.136 2.95 2.95 0 0 0-1.296.28c-.17.08-.325.173-.464.28a41.26 41.26 0 0 1-.4.304l-.864-.896zm4.064 3.008c-.341 0-.69.019-1.048.056-.357.037-.683.11-.976.216a1.882 1.882 0 0 0-.72.448c-.187.192-.28.437-.28.736 0 .437.147.752.44.944.293.192.69.288 1.192.288.395 0 .73-.067 1.008-.2.277-.133.501-.307.672-.52.17-.213.293-.45.368-.712.075-.261.112-.52.112-.776v-.48h-.768z"/></g></svg>