<?xml version="1.0" encoding="utf-8"?>
<svg xmlns="http://www.w3.org/2000/svg">
<symbol id="add-user"><g transform="translate(1 1)" stroke="#75FED0" fill="none" fill-rule="evenodd"><ellipse cx="9.565" cy="6.31" rx="6.375" ry="6.31"/><path d="M15.97 13.71a9.535 9.535 0 0 0-3.255-1.91M0 20.735a9.5 9.5 0 0 1 6.41-8.94"/><ellipse cx="18.52" cy="17.45" rx="4.48" ry="4.55"/><path d="M18.5 15v5M21 17.5h-5"/></g>
</symbol>
<symbol id="behance"><path d="M7.817 5.367c.394-.198.692-.419.895-.659.363-.43.543-1 .543-1.706 0-.686-.18-1.275-.538-1.768C8.12.432 7.107.021 5.674 0H0v11.583h5.29c.597 0 1.15-.05 1.66-.156.51-.105.952-.298 1.326-.582.333-.246.61-.55.83-.91.35-.545.525-1.162.525-1.848 0-.666-.153-1.232-.457-1.697-.307-.467-.759-.807-1.357-1.023zM2.34 2.011h2.556c.561 0 1.024.061 1.388.181.42.174.63.53.63 1.071 0 .485-.16.824-.477 1.016-.32.192-.734.288-1.242.288H2.34V2.011zM6.38 9.37c-.283.135-.68.204-1.19.204h-2.85v-3.09h2.89c.503.005.895.071 1.175.197.499.226.747.64.747 1.243 0 .712-.257 1.192-.772 1.446zm5.76-8.83h5.031v1.442h-5.031V.54zm6.087 3.92c.359.51.589 1.1.694 1.771.061.393.086.961.076 1.7h-6.326c.038.859.337 1.462.909 1.807.346.215.763.323 1.252.323.515 0 .936-.131 1.26-.392.177-.143.333-.34.467-.59h2.318c-.061.507-.343 1.024-.84 1.548-.779.833-1.867 1.249-3.267 1.249-1.157 0-2.176-.35-3.058-1.054-.886-.702-1.326-1.846-1.326-3.428 0-1.485.399-2.623 1.196-3.415.798-.79 1.832-1.189 3.104-1.189.756 0 1.436.135 2.042.403.607.266 1.106.69 1.5 1.267zm-5.5 1.994c.082-.558.285-1 .605-1.326.32-.326.774-.49 1.355-.49.536 0 .984.154 1.348.461.36.31.564.76.605 1.355h-3.914z" fill="#61687A" fill-rule="evenodd" opacity=".4"/>
</symbol>
<symbol id="business-tie"><g stroke-width="2" stroke="#FF165E" fill="none" fill-rule="evenodd"><path d="M11 1H4.06L8.5 9 1 42.72 10.96 49"/><path d="M9 1h10.5l-4.41 8.03 7.58 33.69L10.96 49"/><path d="M8.5 9l6.59.03L25 31l-4 4.5"/></g>
</symbol>
<symbol id="collaboration"><g transform="translate(1)" stroke="#75FED0" fill="none" fill-rule="evenodd"><ellipse cx="5.043" cy="8.211" rx="2.522" ry="2.526"/><path d="M10.087 18.316a5.048 5.048 0 0 0-5.044-5.053A5.048 5.048 0 0 0 0 18.316h10.087z"/><ellipse cx="23.957" cy="8.211" rx="2.522" ry="2.526"/><path d="M29 18.316a5.048 5.048 0 0 0-5.043-5.053 5.048 5.048 0 0 0-5.044 5.053H29zM7.452 3.158c3.984-3.474 9.998-3.29 13.983.07M7.452 20.842c3.984 3.493 9.998 3.316 14.008-.05"/><ellipse cx="10.717" cy="12" rx="1" ry="1"/><ellipse cx="14.5" cy="12" rx="1" ry="1"/><ellipse cx="18.283" cy="12" rx="1" ry="1"/></g>
</symbol>
<symbol id="facebook"><path d="M16 15.117a.883.883 0 0 1-.883.883H11.04V9.804h2.08l.311-2.415H11.04V5.847c0-.699.194-1.175 1.197-1.175h1.278v-2.16c-.221-.03-.98-.095-1.863-.095-1.843 0-3.106 1.125-3.106 3.192v1.78H6.461v2.415h2.085V16H.883A.883.883 0 0 1 0 15.117V.883C0 .395.395 0 .883 0h14.234c.488 0 .883.395.883.883v14.234" fill="#61687A" fill-rule="evenodd" opacity=".4"/>
</symbol>
<symbol id="flag"><g stroke-width="2" stroke="#36E6CC" fill="none" fill-rule="evenodd"><path d="M1 47V1M1 3S11.13.06 20 4s17-2 17-2v20s-8.12 5.94-17 2c-8.88-3.94-19-1-19-1"/></g>
</symbol>
<symbol id="google"><path d="M7.484 6.015h7.187C15.17 9.609 13.66 15 7.484 15 3.35 15 0 11.642 0 7.5 0 3.358 3.35 0 7.484 0c1.939 0 3.705.739 5.035 1.952-1.566 1.482-1.515 1.57-2.13 2.187-.769-.637-1.607-1.094-2.905-1.094-2.456 0-4.372 1.994-4.372 4.455 0 2.46 1.916 4.455 4.372 4.455 2.426 0 3.411-1.048 4.045-2.974-1.17 0-4.045.004-4.045.004v-2.97zm13.484.148h2.593V8.02h-2.593v2.673h-1.852V8.02h-2.668V6.163h2.668V3.564h1.852v2.6z" fill="#61687A" fill-rule="evenodd" opacity=".4"/>
</symbol>
<symbol id="headphones"><g stroke="#75FED0" fill="none" fill-rule="evenodd"><path d="M2.24 15.675A10.45 10.45 0 0 1 1 10.71C1 5.15 5.255 1.5 10.5 1.5S20 5.15 20 10.71a10.45 10.45 0 0 1-1.24 4.965"/><path d="M13.955 2c0 .89-1.955.29-3.455.29S7.045 2.895 7.045 2 9 1 10.5 1s3.455.12 3.455 1zM16.61 18.6c.95.09 1.795-.605 1.89-1.555l.365-3.5a1.745 1.745 0 0 0-1.535-1.925 1.735 1.735 0 0 0-1.9 1.555l-.365 3.5A1.745 1.745 0 0 0 16.61 18.6zM4.39 18.6a1.735 1.735 0 0 1-1.89-1.555l-.365-3.5A1.745 1.745 0 0 1 3.67 11.62a1.735 1.735 0 0 1 1.9 1.555l.365 3.5A1.745 1.745 0 0 1 4.39 18.6zM10.5 23.5c2.25-1.3 4.545-2.725 6.175-4.795"/><path d="M11.93 22.5a.5.5 0 0 1-.195.685l-.93.5a.555.555 0 0 1-.735-.185.5.5 0 0 1 .195-.685l.93-.5a.555.555 0 0 1 .73.185h.005z"/></g>
</symbol>
<symbol id="home"><g stroke-width="2" stroke="#36E6CC" fill="none" fill-rule="evenodd"><path d="M1 23L23 1l22 22M41 24v22H29V30H16v16H5V24"/></g>
</symbol>
<symbol id="microphone"><g transform="translate(1 1)" stroke="#75FED0" fill="none" fill-rule="evenodd"><rect x="2.182" width="7.636" height="18.809" rx="3.818"/><path d="M12 9.404V14.5c0 3.513-2.558 6.522-5.87 6.522h-.065C2.727 21.021 0 18.011 0 14.5V9.404M6 25.447V21.02M3.818 25h4.364M2.182 9h7.636"/></g>
</symbol>
<symbol id="place"><g stroke-width="2" transform="translate(1 1)" stroke="#36E6CC" fill="none" fill-rule="evenodd"><path d="M31.08 29c2.42-3.45 4.33-7.15 4.33-11.57a17.415 17.415 0 1 0-34.83 0c0 5.72 2.91 9.66 6.21 14L17.82 46c.2.26 3.84-4.61 4.14-5a464.106 464.106 0 0 0 4.14-5.41c1.62-2.18 3.41-4.32 4.98-6.59z"/><circle cx="18" cy="17" r="8"/></g>
</symbol>
<symbol id="profile"><g stroke-width="2" transform="translate(1 1)" stroke="#36E6CC" fill="none" fill-rule="evenodd"><circle cx="23" cy="16.5" r="4"/><path d="M14 33.5a9 9 0 0 1 18 0"/><circle cx="23.04" cy="23.04" r="23"/></g>
</symbol>
<symbol id="student"><g stroke-width="2" transform="translate(0 1)" stroke="#75FED0" fill="none" fill-rule="evenodd"><path d="M17 0H4.114v13.565c3.855-2.673 9.031-2.673 12.886 0M4.114 0H0"/><path d="M16 0h12.8v13.565a11.218 11.218 0 0 0-12.8 0M28.8 0h5.143v13.565M4.114 24c0 6.916 5.526 12.522 12.343 12.522S28.8 30.916 28.8 24V13.565M4.114 24V13.565"/><rect x="31.886" y="13.565" width="4.114" height="6.261" rx="2"/><path d="M.72 48c4.365-4.663 10.427-7.303 16.766-7.303 6.339 0 12.4 2.64 16.765 7.303"/><ellipse cx="11.314" cy="21.913" rx="3.086" ry="3.13"/><ellipse cx="22.629" cy="21.913" rx="3.086" ry="3.13"/><path d="M14.4 21.913h5.143"/></g>
</symbol>
<symbol id="target"><g stroke-width="2" transform="translate(1 1)" stroke="#1A82FF" fill="none" fill-rule="evenodd"><path d="M61.667 12.318l-2.174-5.442L67.14 0l1.788 5.072"/><path d="M61.667 12.318l5.072 1.788L74 6.86l-5.072-1.788M68.928 5.072L33.285 40.715"/><circle cx="33.285" cy="40.715" r="5.411"/><circle cx="33.285" cy="40.715" r="23.988"/><circle cx="33.285" cy="40.715" r="33.285"/><circle cx="33.285" cy="40.715" r="13.937"/></g>
</symbol>
<symbol id="twitter"><path d="M14.315 1.129A3.44 3.44 0 0 0 11.769 0C9.845 0 8.283 1.602 8.283 3.578c0 .28.03.553.09.815-2.899-.15-5.468-1.572-7.19-3.74-.3.53-.472 1.146-.472 1.801a3.6 3.6 0 0 0 1.552 2.978 3.423 3.423 0 0 1-1.58-.446v.043c0 1.735 1.202 3.181 2.798 3.509a3.397 3.397 0 0 1-1.575.063c.444 1.42 1.731 2.455 3.258 2.483A6.885 6.885 0 0 1 0 12.567a9.705 9.705 0 0 0 5.347 1.606c6.415 0 9.923-5.45 9.923-10.18 0-.155-.003-.31-.009-.463A7.157 7.157 0 0 0 17 1.678a6.829 6.829 0 0 1-2.003.563A3.57 3.57 0 0 0 16.531.262c-.674.41-1.42.708-2.216.867z" fill="#61687A" fill-rule="evenodd" opacity=".4"/>
</symbol>
<symbol id="cloud"><path d="M13.917 11.25L11 14.167 8.083 11.25h1.75V8.917h2.334v2.333h1.75zM11 22C4.925 22 0 17.075 0 11S4.925 0 11 0s11 4.925 11 11-4.925 11-11 11zm4.287-12.477a4.37 4.37 0 0 0-8.166-1.166A3.497 3.497 0 0 0 4 11.833c0 1.931 1.57 3.5 3.5 3.5h7.583A2.918 2.918 0 0 0 18 12.417a2.903 2.903 0 0 0-2.713-2.894z" fill="#000" fill-rule="evenodd" opacity=".2"/>
</symbol>
<symbol id="instagram"><path d="M14.5 11.52a2.983 2.983 0 0 1-2.98 2.98H4.392a2.983 2.983 0 0 1-2.98-2.98V4.392a2.983 2.983 0 0 1 2.98-2.98h7.13a2.983 2.983 0 0 1 2.979 2.98v7.13zM7.956 3.857c2.26 0 4.1 1.84 4.1 4.1s-1.84 4.1-4.1 4.1-4.1-1.84-4.1-4.1 1.84-4.1 4.1-4.1zm0 6.788a2.691 2.691 0 0 0 2.688-2.688 2.691 2.691 0 0 0-2.688-2.688 2.691 2.691 0 0 0-2.688 2.688 2.691 2.691 0 0 0 2.688 2.688zM11.52 0H4.39A4.396 4.396 0 0 0 0 4.391v7.13a4.396 4.396 0 0 0 4.391 4.39h7.13a4.396 4.396 0 0 0 4.39-4.39V4.39A4.396 4.396 0 0 0 11.522 0zm.707 2.659a1.04 1.04 0 0 0-1.035 1.035c0 .272.11.54.304.732.192.192.459.304.73.304.274 0 .54-.112.733-.304a1.04 1.04 0 0 0 0-1.464 1.04 1.04 0 0 0-.732-.303z" fill="#61687A" fill-rule="evenodd" opacity=".4"/>
</symbol>
<symbol id="logo"><g fill="#FFF" fill-rule="evenodd"><path d="M20.827 16.393l-1.575-3.199-3.132 1.61a1.01 1.01 0 0 0-.433 1.343.97.97 0 0 0 1.314.443l.367-.189c-.807 2.393-3.088 4.195-5.87 4.533V10.51h1.579a.99.99 0 0 0 .978-1 .99.99 0 0 0-.978-1h-1.579V7.446c1.574-.44 2.734-1.909 2.734-3.654C14.232 1.701 12.567 0 10.52 0S6.808 1.7 6.808 3.792c0 1.745 1.16 3.214 2.734 3.654V8.51H8.043a.99.99 0 0 0-.978 1c0 .552.438 1 .978 1h1.499v10.413c-2.715-.359-4.939-2.113-5.76-4.442l.214.11a.97.97 0 0 0 1.314-.444 1.01 1.01 0 0 0-.434-1.342l-3.131-1.61-1.576 3.198a1.01 1.01 0 0 0 .434 1.342.958.958 0 0 0 .44.107.976.976 0 0 0 .874-.55l.045-.09c1.212 3.362 4.604 5.794 8.598 5.794 3.942 0 7.295-2.37 8.548-5.663a.973.973 0 0 0 .847.509.954.954 0 0 0 .439-.107c.482-.248.676-.85.433-1.342zM8.765 3.793c0-.99.787-1.794 1.755-1.794.968 0 1.755.804 1.755 1.793 0 .988-.787 1.793-1.755 1.793-.968 0-1.755-.805-1.755-1.793zM43.656 19.288a6.106 6.106 0 0 1-2.384-.456 5.552 5.552 0 0 1-1.864-1.256 5.805 5.805 0 0 1-1.216-1.888 6.214 6.214 0 0 1-.44-2.352c0-.843.147-1.627.44-2.352a5.805 5.805 0 0 1 1.216-1.888 5.552 5.552 0 0 1 1.864-1.256 6.106 6.106 0 0 1 2.384-.456c.864 0 1.659.152 2.384.456a5.552 5.552 0 0 1 1.864 1.256 5.805 5.805 0 0 1 1.216 1.888c.293.725.44 1.51.44 2.352 0 .843-.147 1.627-.44 2.352a5.805 5.805 0 0 1-1.216 1.888 5.552 5.552 0 0 1-1.864 1.256 6.106 6.106 0 0 1-2.384.456zm0-1.44c.65 0 1.237-.12 1.76-.36a4.17 4.17 0 0 0 1.344-.968c.373-.405.661-.883.864-1.432.203-.55.304-1.133.304-1.752s-.101-1.203-.304-1.752a4.268 4.268 0 0 0-.864-1.432 4.17 4.17 0 0 0-1.344-.968c-.523-.24-1.11-.36-1.76-.36-.65 0-1.237.12-1.76.36a4.17 4.17 0 0 0-1.344.968 4.268 4.268 0 0 0-.864 1.432 5.021 5.021 0 0 0-.304 1.752c0 .619.101 1.203.304 1.752.203.55.49 1.027.864 1.432a4.17 4.17 0 0 0 1.344.968c.523.24 1.11.36 1.76.36zM59.2 19h-1.44v-1.088h-.032c-.277.405-.659.72-1.144.944a3.534 3.534 0 0 1-1.496.336 4.016 4.016 0 0 1-1.592-.304 3.518 3.518 0 0 1-1.216-.848 3.831 3.831 0 0 1-.776-1.264 4.402 4.402 0 0 1-.272-1.568c0-.565.09-1.09.272-1.576.181-.485.44-.907.776-1.264a3.571 3.571 0 0 1 1.216-.84 4.016 4.016 0 0 1 1.592-.304c.544 0 1.056.115 1.536.344.48.23.848.541 1.104.936h.032v-5.6h1.44V19zm-3.936-1.152c.384 0 .73-.067 1.04-.2.31-.133.57-.315.784-.544a2.4 2.4 0 0 0 .496-.832c.117-.325.176-.68.176-1.064s-.059-.739-.176-1.064a2.4 2.4 0 0 0-.496-.832 2.296 2.296 0 0 0-.784-.544c-.31-.133-.656-.2-1.04-.2s-.73.067-1.04.2c-.31.133-.57.315-.784.544a2.4 2.4 0 0 0-.496.832c-.117.325-.176.68-.176 1.064s.059.739.176 1.064a2.4 2.4 0 0 0 .496.832c.213.23.475.41.784.544.31.133.656.2 1.04.2zm7.4-2.112c0 .33.072.632.216.904.144.272.333.504.568.696.235.192.507.341.816.448.31.107.63.16.96.16.448 0 .837-.104 1.168-.312a3.76 3.76 0 0 0 .912-.824l1.088.832c-.8 1.035-1.92 1.552-3.36 1.552a4.176 4.176 0 0 1-1.624-.304 3.536 3.536 0 0 1-1.232-.84 3.726 3.726 0 0 1-.776-1.264 4.468 4.468 0 0 1-.272-1.576c0-.565.099-1.09.296-1.576.197-.485.47-.907.816-1.264.347-.357.76-.637 1.24-.84a3.99 3.99 0 0 1 1.568-.304c.672 0 1.24.117 1.704.352.464.235.845.541 1.144.92.299.379.515.805.648 1.28s.2.957.2 1.448v.512h-6.08zm4.544-1.152a3.037 3.037 0 0 0-.152-.88 1.936 1.936 0 0 0-.408-.696 1.88 1.88 0 0 0-.68-.464 2.488 2.488 0 0 0-.952-.168 2.358 2.358 0 0 0-2.184 1.432c-.112.261-.168.52-.168.776h4.544zm7.496-1.264a2.207 2.207 0 0 0-.632-.536c-.25-.144-.557-.216-.92-.216-.341 0-.637.072-.888.216-.25.144-.376.355-.376.632 0 .224.072.405.216.544.144.139.315.25.512.336.197.085.408.15.632.192l.576.112c.31.075.6.165.872.272.272.107.507.245.704.416.197.17.352.379.464.624.112.245.168.544.168.896 0 .427-.09.792-.272 1.096a2.293 2.293 0 0 1-.704.744c-.288.192-.616.33-.984.416a4.907 4.907 0 0 1-1.112.128c-.63 0-1.181-.096-1.656-.288-.475-.192-.899-.544-1.272-1.056l1.088-.896c.235.235.496.443.784.624.288.181.64.272 1.056.272.181 0 .365-.019.552-.056.187-.037.352-.096.496-.176.144-.08.261-.181.352-.304a.694.694 0 0 0 .136-.424.73.73 0 0 0-.2-.528 1.45 1.45 0 0 0-.48-.328 3.494 3.494 0 0 0-.592-.192 19.473 19.473 0 0 0-.552-.12 9.517 9.517 0 0 1-.88-.256 2.675 2.675 0 0 1-.736-.384 1.774 1.774 0 0 1-.512-.608c-.128-.245-.192-.55-.192-.912 0-.395.083-.739.248-1.032.165-.293.384-.536.656-.728.272-.192.581-.336.928-.432a3.91 3.91 0 0 1 2.52.144c.47.192.843.512 1.12.96l-1.12.848zm7.304 0a2.207 2.207 0 0 0-.632-.536c-.25-.144-.557-.216-.92-.216-.341 0-.637.072-.888.216-.25.144-.376.355-.376.632 0 .224.072.405.216.544.144.139.315.25.512.336.197.085.408.15.632.192l.576.112c.31.075.6.165.872.272.272.107.507.245.704.416.197.17.352.379.464.624.112.245.168.544.168.896 0 .427-.09.792-.272 1.096a2.293 2.293 0 0 1-.704.744c-.288.192-.616.33-.984.416a4.907 4.907 0 0 1-1.112.128c-.63 0-1.181-.096-1.656-.288-.475-.192-.899-.544-1.272-1.056l1.088-.896c.235.235.496.443.784.624.288.181.64.272 1.056.272.181 0 .365-.019.552-.056.187-.037.352-.096.496-.176.144-.08.261-.181.352-.304a.694.694 0 0 0 .136-.424.73.73 0 0 0-.2-.528 1.45 1.45 0 0 0-.48-.328 3.494 3.494 0 0 0-.592-.192 19.473 19.473 0 0 0-.552-.12 9.517 9.517 0 0 1-.88-.256 2.675 2.675 0 0 1-.736-.384 1.774 1.774 0 0 1-.512-.608c-.128-.245-.192-.55-.192-.912 0-.395.083-.739.248-1.032.165-.293.384-.536.656-.728.272-.192.581-.336.928-.432a3.91 3.91 0 0 1 2.52.144c.47.192.843.512 1.12.96l-1.12.848zm3.304-.976a4.009 4.009 0 0 1 1.408-.84 4.816 4.816 0 0 1 1.6-.28c.555 0 1.032.07 1.432.208.4.139.728.325.984.56.256.235.445.504.568.808.123.304.184.621.184.952v3.872c0 .267.005.512.016.736.01.224.027.437.048.64h-1.28a13.866 13.866 0 0 1-.048-1.152h-.032c-.32.49-.699.837-1.136 1.04-.437.203-.944.304-1.52.304a3.49 3.49 0 0 1-1.008-.144 2.46 2.46 0 0 1-.84-.432c-.24-.192-.43-.43-.568-.712a2.208 2.208 0 0 1-.208-.984c0-.49.11-.901.328-1.232.219-.33.517-.6.896-.808a4.325 4.325 0 0 1 1.328-.448 9.22 9.22 0 0 1 1.624-.136h1.056v-.32a1.58 1.58 0 0 0-1.008-1.464 2.128 2.128 0 0 0-.8-.136 2.95 2.95 0 0 0-1.296.28c-.17.08-.325.173-.464.28a41.26 41.26 0 0 1-.4.304l-.864-.896zm4.064 3.008c-.341 0-.69.019-1.048.056-.357.037-.683.11-.976.216a1.882 1.882 0 0 0-.72.448c-.187.192-.28.437-.28.736 0 .437.147.752.44.944.293.192.69.288 1.192.288.395 0 .73-.067 1.008-.2.277-.133.501-.307.672-.52.17-.213.293-.45.368-.712.075-.261.112-.52.112-.776v-.48h-.768z"/></g>
</symbol>
<symbol id="sprite">
<symbol id="add-user"><g transform="translate(1 1)" stroke="#75FED0" fill="none" fill-rule="evenodd"><ellipse cx="9.565" cy="6.31" rx="6.375" ry="6.31"/><path d="M15.97 13.71a9.535 9.535 0 0 0-3.255-1.91M0 20.735a9.5 9.5 0 0 1 6.41-8.94"/><ellipse cx="18.52" cy="17.45" rx="4.48" ry="4.55"/><path d="M18.5 15v5M21 17.5h-5"/></g>
</symbol>
<symbol id="behance"><path d="M7.817 5.367c.394-.198.692-.419.895-.659.363-.43.543-1 .543-1.706 0-.686-.18-1.275-.538-1.768C8.12.432 7.107.021 5.674 0H0v11.583h5.29c.597 0 1.15-.05 1.66-.156.51-.105.952-.298 1.326-.582.333-.246.61-.55.83-.91.35-.545.525-1.162.525-1.848 0-.666-.153-1.232-.457-1.697-.307-.467-.759-.807-1.357-1.023zM2.34 2.011h2.556c.561 0 1.024.061 1.388.181.42.174.63.53.63 1.071 0 .485-.16.824-.477 1.016-.32.192-.734.288-1.242.288H2.34V2.011zM6.38 9.37c-.283.135-.68.204-1.19.204h-2.85v-3.09h2.89c.503.005.895.071 1.175.197.499.226.747.64.747 1.243 0 .712-.257 1.192-.772 1.446zm5.76-8.83h5.031v1.442h-5.031V.54zm6.087 3.92c.359.51.589 1.1.694 1.771.061.393.086.961.076 1.7h-6.326c.038.859.337 1.462.909 1.807.346.215.763.323 1.252.323.515 0 .936-.131 1.26-.392.177-.143.333-.34.467-.59h2.318c-.061.507-.343 1.024-.84 1.548-.779.833-1.867 1.249-3.267 1.249-1.157 0-2.176-.35-3.058-1.054-.886-.702-1.326-1.846-1.326-3.428 0-1.485.399-2.623 1.196-3.415.798-.79 1.832-1.189 3.104-1.189.756 0 1.436.135 2.042.403.607.266 1.106.69 1.5 1.267zm-5.5 1.994c.082-.558.285-1 .605-1.326.32-.326.774-.49 1.355-.49.536 0 .984.154 1.348.461.36.31.564.76.605 1.355h-3.914z" fill="#61687A" fill-rule="evenodd" opacity=".4"/>
</symbol>
<symbol id="business-tie"><g stroke-width="2" stroke="#FF165E" fill="none" fill-rule="evenodd"><path d="M11 1H4.06L8.5 9 1 42.72 10.96 49"/><path d="M9 1h10.5l-4.41 8.03 7.58 33.69L10.96 49"/><path d="M8.5 9l6.59.03L25 31l-4 4.5"/></g>
</symbol>
<symbol id="collaboration"><g transform="translate(1)" stroke="#75FED0" fill="none" fill-rule="evenodd"><ellipse cx="5.043" cy="8.211" rx="2.522" ry="2.526"/><path d="M10.087 18.316a5.048 5.048 0 0 0-5.044-5.053A5.048 5.048 0 0 0 0 18.316h10.087z"/><ellipse cx="23.957" cy="8.211" rx="2.522" ry="2.526"/><path d="M29 18.316a5.048 5.048 0 0 0-5.043-5.053 5.048 5.048 0 0 0-5.044 5.053H29zM7.452 3.158c3.984-3.474 9.998-3.29 13.983.07M7.452 20.842c3.984 3.493 9.998 3.316 14.008-.05"/><ellipse cx="10.717" cy="12" rx="1" ry="1"/><ellipse cx="14.5" cy="12" rx="1" ry="1"/><ellipse cx="18.283" cy="12" rx="1" ry="1"/></g>
</symbol>
<symbol id="facebook"><path d="M16 15.117a.883.883 0 0 1-.883.883H11.04V9.804h2.08l.311-2.415H11.04V5.847c0-.699.194-1.175 1.197-1.175h1.278v-2.16c-.221-.03-.98-.095-1.863-.095-1.843 0-3.106 1.125-3.106 3.192v1.78H6.461v2.415h2.085V16H.883A.883.883 0 0 1 0 15.117V.883C0 .395.395 0 .883 0h14.234c.488 0 .883.395.883.883v14.234" fill="#61687A" fill-rule="evenodd" opacity=".4"/>
</symbol>
<symbol id="flag"><g stroke-width="2" stroke="#36E6CC" fill="none" fill-rule="evenodd"><path d="M1 47V1M1 3S11.13.06 20 4s17-2 17-2v20s-8.12 5.94-17 2c-8.88-3.94-19-1-19-1"/></g>
</symbol>
<symbol id="google"><path d="M7.484 6.015h7.187C15.17 9.609 13.66 15 7.484 15 3.35 15 0 11.642 0 7.5 0 3.358 3.35 0 7.484 0c1.939 0 3.705.739 5.035 1.952-1.566 1.482-1.515 1.57-2.13 2.187-.769-.637-1.607-1.094-2.905-1.094-2.456 0-4.372 1.994-4.372 4.455 0 2.46 1.916 4.455 4.372 4.455 2.426 0 3.411-1.048 4.045-2.974-1.17 0-4.045.004-4.045.004v-2.97zm13.484.148h2.593V8.02h-2.593v2.673h-1.852V8.02h-2.668V6.163h2.668V3.564h1.852v2.6z" fill="#61687A" fill-rule="evenodd" opacity=".4"/>
</symbol>
<symbol id="headphones"><g stroke="#75FED0" fill="none" fill-rule="evenodd"><path d="M2.24 15.675A10.45 10.45 0 0 1 1 10.71C1 5.15 5.255 1.5 10.5 1.5S20 5.15 20 10.71a10.45 10.45 0 0 1-1.24 4.965"/><path d="M13.955 2c0 .89-1.955.29-3.455.29S7.045 2.895 7.045 2 9 1 10.5 1s3.455.12 3.455 1zM16.61 18.6c.95.09 1.795-.605 1.89-1.555l.365-3.5a1.745 1.745 0 0 0-1.535-1.925 1.735 1.735 0 0 0-1.9 1.555l-.365 3.5A1.745 1.745 0 0 0 16.61 18.6zM4.39 18.6a1.735 1.735 0 0 1-1.89-1.555l-.365-3.5A1.745 1.745 0 0 1 3.67 11.62a1.735 1.735 0 0 1 1.9 1.555l.365 3.5A1.745 1.745 0 0 1 4.39 18.6zM10.5 23.5c2.25-1.3 4.545-2.725 6.175-4.795"/><path d="M11.93 22.5a.5.5 0 0 1-.195.685l-.93.5a.555.555 0 0 1-.735-.185.5.5 0 0 1 .195-.685l.93-.5a.555.555 0 0 1 .73.185h.005z"/></g>
</symbol>
<symbol id="home"><g stroke-width="2" stroke="#36E6CC" fill="none" fill-rule="evenodd"><path d="M1 23L23 1l22 22M41 24v22H29V30H16v16H5V24"/></g>
</symbol>
<symbol id="microphone"><g transform="translate(1 1)" stroke="#75FED0" fill="none" fill-rule="evenodd"><rect x="2.182" width="7.636" height="18.809" rx="3.818"/><path d="M12 9.404V14.5c0 3.513-2.558 6.522-5.87 6.522h-.065C2.727 21.021 0 18.011 0 14.5V9.404M6 25.447V21.02M3.818 25h4.364M2.182 9h7.636"/></g>
</symbol>
<symbol id="place"><g stroke-width="2" transform="translate(1 1)" stroke="#36E6CC" fill="none" fill-rule="evenodd"><path d="M31.08 29c2.42-3.45 4.33-7.15 4.33-11.57a17.415 17.415 0 1 0-34.83 0c0 5.72 2.91 9.66 6.21 14L17.82 46c.2.26 3.84-4.61 4.14-5a464.106 464.106 0 0 0 4.14-5.41c1.62-2.18 3.41-4.32 4.98-6.59z"/><circle cx="18" cy="17" r="8"/></g>
</symbol>
<symbol id="profile"><g stroke-width="2" transform="translate(1 1)" stroke="#36E6CC" fill="none" fill-rule="evenodd"><circle cx="23" cy="16.5" r="4"/><path d="M14 33.5a9 9 0 0 1 18 0"/><circle cx="23.04" cy="23.04" r="23"/></g>
</symbol>
<symbol id="student"><g stroke-width="2" transform="translate(0 1)" stroke="#75FED0" fill="none" fill-rule="evenodd"><path d="M17 0H4.114v13.565c3.855-2.673 9.031-2.673 12.886 0M4.114 0H0"/><path d="M16 0h12.8v13.565a11.218 11.218 0 0 0-12.8 0M28.8 0h5.143v13.565M4.114 24c0 6.916 5.526 12.522 12.343 12.522S28.8 30.916 28.8 24V13.565M4.114 24V13.565"/><rect x="31.886" y="13.565" width="4.114" height="6.261" rx="2"/><path d="M.72 48c4.365-4.663 10.427-7.303 16.766-7.303 6.339 0 12.4 2.64 16.765 7.303"/><ellipse cx="11.314" cy="21.913" rx="3.086" ry="3.13"/><ellipse cx="22.629" cy="21.913" rx="3.086" ry="3.13"/><path d="M14.4 21.913h5.143"/></g>
</symbol>
<symbol id="target"><g stroke-width="2" transform="translate(1 1)" stroke="#1A82FF" fill="none" fill-rule="evenodd"><path d="M61.667 12.318l-2.174-5.442L67.14 0l1.788 5.072"/><path d="M61.667 12.318l5.072 1.788L74 6.86l-5.072-1.788M68.928 5.072L33.285 40.715"/><circle cx="33.285" cy="40.715" r="5.411"/><circle cx="33.285" cy="40.715" r="23.988"/><circle cx="33.285" cy="40.715" r="33.285"/><circle cx="33.285" cy="40.715" r="13.937"/></g>
</symbol>
<symbol id="twitter"><path d="M14.315 1.129A3.44 3.44 0 0 0 11.769 0C9.845 0 8.283 1.602 8.283 3.578c0 .28.03.553.09.815-2.899-.15-5.468-1.572-7.19-3.74-.3.53-.472 1.146-.472 1.801a3.6 3.6 0 0 0 1.552 2.978 3.423 3.423 0 0 1-1.58-.446v.043c0 1.735 1.202 3.181 2.798 3.509a3.397 3.397 0 0 1-1.575.063c.444 1.42 1.731 2.455 3.258 2.483A6.885 6.885 0 0 1 0 12.567a9.705 9.705 0 0 0 5.347 1.606c6.415 0 9.923-5.45 9.923-10.18 0-.155-.003-.31-.009-.463A7.157 7.157 0 0 0 17 1.678a6.829 6.829 0 0 1-2.003.563A3.57 3.57 0 0 0 16.531.262c-.674.41-1.42.708-2.216.867z" fill="#61687A" fill-rule="evenodd" opacity=".4"/>
</symbol>
<symbol id="cloud"><path d="M13.917 11.25L11 14.167 8.083 11.25h1.75V8.917h2.334v2.333h1.75zM11 22C4.925 22 0 17.075 0 11S4.925 0 11 0s11 4.925 11 11-4.925 11-11 11zm4.287-12.477a4.37 4.37 0 0 0-8.166-1.166A3.497 3.497 0 0 0 4 11.833c0 1.931 1.57 3.5 3.5 3.5h7.583A2.918 2.918 0 0 0 18 12.417a2.903 2.903 0 0 0-2.713-2.894z" fill="#000" fill-rule="evenodd" opacity=".2"/>
</symbol>
<symbol id="instagram"><path d="M14.5 11.52a2.983 2.983 0 0 1-2.98 2.98H4.392a2.983 2.983 0 0 1-2.98-2.98V4.392a2.983 2.983 0 0 1 2.98-2.98h7.13a2.983 2.983 0 0 1 2.979 2.98v7.13zM7.956 3.857c2.26 0 4.1 1.84 4.1 4.1s-1.84 4.1-4.1 4.1-4.1-1.84-4.1-4.1 1.84-4.1 4.1-4.1zm0 6.788a2.691 2.691 0 0 0 2.688-2.688 2.691 2.691 0 0 0-2.688-2.688 2.691 2.691 0 0 0-2.688 2.688 2.691 2.691 0 0 0 2.688 2.688zM11.52 0H4.39A4.396 4.396 0 0 0 0 4.391v7.13a4.396 4.396 0 0 0 4.391 4.39h7.13a4.396 4.396 0 0 0 4.39-4.39V4.39A4.396 4.396 0 0 0 11.522 0zm.707 2.659a1.04 1.04 0 0 0-1.035 1.035c0 .272.11.54.304.732.192.192.459.304.73.304.274 0 .54-.112.733-.304a1.04 1.04 0 0 0 0-1.464 1.04 1.04 0 0 0-.732-.303z" fill="#61687A" fill-rule="evenodd" opacity=".4"/>
</symbol>
<symbol id="logo"><g fill="#FFF" fill-rule="evenodd"><path d="M20.827 16.393l-1.575-3.199-3.132 1.61a1.01 1.01 0 0 0-.433 1.343.97.97 0 0 0 1.314.443l.367-.189c-.807 2.393-3.088 4.195-5.87 4.533V10.51h1.579a.99.99 0 0 0 .978-1 .99.99 0 0 0-.978-1h-1.579V7.446c1.574-.44 2.734-1.909 2.734-3.654C14.232 1.701 12.567 0 10.52 0S6.808 1.7 6.808 3.792c0 1.745 1.16 3.214 2.734 3.654V8.51H8.043a.99.99 0 0 0-.978 1c0 .552.438 1 .978 1h1.499v10.413c-2.715-.359-4.939-2.113-5.76-4.442l.214.11a.97.97 0 0 0 1.314-.444 1.01 1.01 0 0 0-.434-1.342l-3.131-1.61-1.576 3.198a1.01 1.01 0 0 0 .434 1.342.958.958 0 0 0 .44.107.976.976 0 0 0 .874-.55l.045-.09c1.212 3.362 4.604 5.794 8.598 5.794 3.942 0 7.295-2.37 8.548-5.663a.973.973 0 0 0 .847.509.954.954 0 0 0 .439-.107c.482-.248.676-.85.433-1.342zM8.765 3.793c0-.99.787-1.794 1.755-1.794.968 0 1.755.804 1.755 1.793 0 .988-.787 1.793-1.755 1.793-.968 0-1.755-.805-1.755-1.793zM43.656 19.288a6.106 6.106 0 0 1-2.384-.456 5.552 5.552 0 0 1-1.864-1.256 5.805 5.805 0 0 1-1.216-1.888 6.214 6.214 0 0 1-.44-2.352c0-.843.147-1.627.44-2.352a5.805 5.805 0 0 1 1.216-1.888 5.552 5.552 0 0 1 1.864-1.256 6.106 6.106 0 0 1 2.384-.456c.864 0 1.659.152 2.384.456a5.552 5.552 0 0 1 1.864 1.256 5.805 5.805 0 0 1 1.216 1.888c.293.725.44 1.51.44 2.352 0 .843-.147 1.627-.44 2.352a5.805 5.805 0 0 1-1.216 1.888 5.552 5.552 0 0 1-1.864 1.256 6.106 6.106 0 0 1-2.384.456zm0-1.44c.65 0 1.237-.12 1.76-.36a4.17 4.17 0 0 0 1.344-.968c.373-.405.661-.883.864-1.432.203-.55.304-1.133.304-1.752s-.101-1.203-.304-1.752a4.268 4.268 0 0 0-.864-1.432 4.17 4.17 0 0 0-1.344-.968c-.523-.24-1.11-.36-1.76-.36-.65 0-1.237.12-1.76.36a4.17 4.17 0 0 0-1.344.968 4.268 4.268 0 0 0-.864 1.432 5.021 5.021 0 0 0-.304 1.752c0 .619.101 1.203.304 1.752.203.55.49 1.027.864 1.432a4.17 4.17 0 0 0 1.344.968c.523.24 1.11.36 1.76.36zM59.2 19h-1.44v-1.088h-.032c-.277.405-.659.72-1.144.944a3.534 3.534 0 0 1-1.496.336 4.016 4.016 0 0 1-1.592-.304 3.518 3.518 0 0 1-1.216-.848 3.831 3.831 0 0 1-.776-1.264 4.402 4.402 0 0 1-.272-1.568c0-.565.09-1.09.272-1.576.181-.485.44-.907.776-1.264a3.571 3.571 0 0 1 1.216-.84 4.016 4.016 0 0 1 1.592-.304c.544 0 1.056.115 1.536.344.48.23.848.541 1.104.936h.032v-5.6h1.44V19zm-3.936-1.152c.384 0 .73-.067 1.04-.2.31-.133.57-.315.784-.544a2.4 2.4 0 0 0 .496-.832c.117-.325.176-.68.176-1.064s-.059-.739-.176-1.064a2.4 2.4 0 0 0-.496-.832 2.296 2.296 0 0 0-.784-.544c-.31-.133-.656-.2-1.04-.2s-.73.067-1.04.2c-.31.133-.57.315-.784.544a2.4 2.4 0 0 0-.496.832c-.117.325-.176.68-.176 1.064s.059.739.176 1.064a2.4 2.4 0 0 0 .496.832c.213.23.475.41.784.544.31.133.656.2 1.04.2zm7.4-2.112c0 .33.072.632.216.904.144.272.333.504.568.696.235.192.507.341.816.448.31.107.63.16.96.16.448 0 .837-.104 1.168-.312a3.76 3.76 0 0 0 .912-.824l1.088.832c-.8 1.035-1.92 1.552-3.36 1.552a4.176 4.176 0 0 1-1.624-.304 3.536 3.536 0 0 1-1.232-.84 3.726 3.726 0 0 1-.776-1.264 4.468 4.468 0 0 1-.272-1.576c0-.565.099-1.09.296-1.576.197-.485.47-.907.816-1.264.347-.357.76-.637 1.24-.84a3.99 3.99 0 0 1 1.568-.304c.672 0 1.24.117 1.704.352.464.235.845.541 1.144.92.299.379.515.805.648 1.28s.2.957.2 1.448v.512h-6.08zm4.544-1.152a3.037 3.037 0 0 0-.152-.88 1.936 1.936 0 0 0-.408-.696 1.88 1.88 0 0 0-.68-.464 2.488 2.488 0 0 0-.952-.168 2.358 2.358 0 0 0-2.184 1.432c-.112.261-.168.52-.168.776h4.544zm7.496-1.264a2.207 2.207 0 0 0-.632-.536c-.25-.144-.557-.216-.92-.216-.341 0-.637.072-.888.216-.25.144-.376.355-.376.632 0 .224.072.405.216.544.144.139.315.25.512.336.197.085.408.15.632.192l.576.112c.31.075.6.165.872.272.272.107.507.245.704.416.197.17.352.379.464.624.112.245.168.544.168.896 0 .427-.09.792-.272 1.096a2.293 2.293 0 0 1-.704.744c-.288.192-.616.33-.984.416a4.907 4.907 0 0 1-1.112.128c-.63 0-1.181-.096-1.656-.288-.475-.192-.899-.544-1.272-1.056l1.088-.896c.235.235.496.443.784.624.288.181.64.272 1.056.272.181 0 .365-.019.552-.056.187-.037.352-.096.496-.176.144-.08.261-.181.352-.304a.694.694 0 0 0 .136-.424.73.73 0 0 0-.2-.528 1.45 1.45 0 0 0-.48-.328 3.494 3.494 0 0 0-.592-.192 19.473 19.473 0 0 0-.552-.12 9.517 9.517 0 0 1-.88-.256 2.675 2.675 0 0 1-.736-.384 1.774 1.774 0 0 1-.512-.608c-.128-.245-.192-.55-.192-.912 0-.395.083-.739.248-1.032.165-.293.384-.536.656-.728.272-.192.581-.336.928-.432a3.91 3.91 0 0 1 2.52.144c.47.192.843.512 1.12.96l-1.12.848zm7.304 0a2.207 2.207 0 0 0-.632-.536c-.25-.144-.557-.216-.92-.216-.341 0-.637.072-.888.216-.25.144-.376.355-.376.632 0 .224.072.405.216.544.144.139.315.25.512.336.197.085.408.15.632.192l.576.112c.31.075.6.165.872.272.272.107.507.245.704.416.197.17.352.379.464.624.112.245.168.544.168.896 0 .427-.09.792-.272 1.096a2.293 2.293 0 0 1-.704.744c-.288.192-.616.33-.984.416a4.907 4.907 0 0 1-1.112.128c-.63 0-1.181-.096-1.656-.288-.475-.192-.899-.544-1.272-1.056l1.088-.896c.235.235.496.443.784.624.288.181.64.272 1.056.272.181 0 .365-.019.552-.056.187-.037.352-.096.496-.176.144-.08.261-.181.352-.304a.694.694 0 0 0 .136-.424.73.73 0 0 0-.2-.528 1.45 1.45 0 0 0-.48-.328 3.494 3.494 0 0 0-.592-.192 19.473 19.473 0 0 0-.552-.12 9.517 9.517 0 0 1-.88-.256 2.675 2.675 0 0 1-.736-.384 1.774 1.774 0 0 1-.512-.608c-.128-.245-.192-.55-.192-.912 0-.395.083-.739.248-1.032.165-.293.384-.536.656-.728.272-.192.581-.336.928-.432a3.91 3.91 0 0 1 2.52.144c.47.192.843.512 1.12.96l-1.12.848zm3.304-.976a4.009 4.009 0 0 1 1.408-.84 4.816 4.816 0 0 1 1.6-.28c.555 0 1.032.07 1.432.208.4.139.728.325.984.56.256.235.445.504.568.808.123.304.184.621.184.952v3.872c0 .267.005.512.016.736.01.224.027.437.048.64h-1.28a13.866 13.866 0 0 1-.048-1.152h-.032c-.32.49-.699.837-1.136 1.04-.437.203-.944.304-1.52.304a3.49 3.49 0 0 1-1.008-.144 2.46 2.46 0 0 1-.84-.432c-.24-.192-.43-.43-.568-.712a2.208 2.208 0 0 1-.208-.984c0-.49.11-.901.328-1.232.219-.33.517-.6.896-.808a4.325 4.325 0 0 1 1.328-.448 9.22 9.22 0 0 1 1.624-.136h1.056v-.32a1.58 1.58 0 0 0-1.008-1.464 2.128 2.128 0 0 0-.8-.136 2.95 2.95 0 0 0-1.296.28c-.17.08-.325.173-.464.28a41.26 41.26 0 0 1-.4.304l-.864-.896zm4.064 3.008c-.341 0-.69.019-1.048.056-.357.037-.683.11-.976.216a1.882 1.882 0 0 0-.72.448c-.187.192-.28.437-.28.736 0 .437.147.752.44.944.293.192.69.288 1.192.288.395 0 .73-.067 1.008-.2.277-.133.501-.307.672-.52.17-.213.293-.45.368-.712.075-.261.112-.52.112-.776v-.48h-.768z"/></g>
</symbol>
<symbol id="symbol_logo"><path d="M20.827 16.393l-1.575-3.199-3.132 1.61a1.01 1.01 0 0 0-.433 1.343.97.97 0 0 0 1.314.443l.367-.189c-.807 2.393-3.088 4.195-5.87 4.533V10.51h1.579a.99.99 0 0 0 .978-1 .99.99 0 0 0-.978-1h-1.579V7.446c1.574-.44 2.734-1.909 2.734-3.654C14.232 1.701 12.567 0 10.52 0S6.808 1.7 6.808 3.792c0 1.745 1.16 3.214 2.734 3.654V8.51H8.043a.99.99 0 0 0-.978 1c0 .552.438 1 .978 1h1.499v10.413c-2.715-.359-4.939-2.113-5.76-4.442l.214.11a.97.97 0 0 0 1.314-.444 1.01 1.01 0 0 0-.434-1.342l-3.131-1.61-1.576 3.198a1.01 1.01 0 0 0 .434 1.342.958.958 0 0 0 .44.107.976.976 0 0 0 .874-.55l.045-.09c1.212 3.362 4.604 5.794 8.598 5.794 3.942 0 7.295-2.37 8.548-5.663a.973.973 0 0 0 .847.509.954.954 0 0 0 .439-.107c.482-.248.676-.85.433-1.342zM8.765 3.793c0-.99.787-1.794 1.755-1.794.968 0 1.755.804 1.755 1.793 0 .988-.787 1.793-1.755 1.793-.968 0-1.755-.805-1.755-1.793z" fill="#FFF" fill-rule="evenodd"/>
</symbol>
</symbol>
<symbol id="symbol_logo"><path d="M20.827 16.393l-1.575-3.199-3.132 1.61a1.01 1.01 0 0 0-.433 1.343.97.97 0 0 0 1.314.443l.367-.189c-.807 2.393-3.088 4.195-5.87 4.533V10.51h1.579a.99.99 0 0 0 .978-1 .99.99 0 0 0-.978-1h-1.579V7.446c1.574-.44 2.734-1.909 2.734-3.654C14.232 1.701 12.567 0 10.52 0S6.808 1.7 6.808 3.792c0 1.745 1.16 3.214 2.734 3.654V8.51H8.043a.99.99 0 0 0-.978 1c0 .552.438 1 .978 1h1.499v10.413c-2.715-.359-4.939-2.113-5.76-4.442l.214.11a.97.97 0 0 0 1.314-.444 1.01 1.01 0 0 0-.434-1.342l-3.131-1.61-1.576 3.198a1.01 1.01 0 0 0 .434 1.342.958.958 0 0 0 .44.107.976.976 0 0 0 .874-.55l.045-.09c1.212 3.362 4.604 5.794 8.598 5.794 3.942 0 7.295-2.37 8.548-5.663a.973.973 0 0 0 .847.509.954.954 0 0 0 .439-.107c.482-.248.676-.85.433-1.342zM8.765 3.793c0-.99.787-1.794 1.755-1.794.968 0 1.755.804 1.755 1.793 0 .988-.787 1.793-1.755 1.793-.968 0-1.755-.805-1.755-1.793z" fill="#FFF" fill-rule="evenodd"/>
</symbol></svg>