<svg width="37" height="50" xmlns="http://www.w3.org/2000/svg"><g stroke-width="2" transform="translate(0 1)" stroke="#75FED0" fill="none" fill-rule="evenodd"><path d="M17 0H4.114v13.565c3.855-2.673 9.031-2.673 12.886 0M4.114 0H0"/><path d="M16 0h12.8v13.565a11.218 11.218 0 0 0-12.8 0M28.8 0h5.143v13.565M4.114 24c0 6.916 5.526 12.522 12.343 12.522S28.8 30.916 28.8 24V13.565M4.114 24V13.565"/><rect x="31.886" y="13.565" width="4.114" height="6.261" rx="2"/><path d="M.72 48c4.365-4.663 10.427-7.303 16.766-7.303 6.339 0 12.4 2.64 16.765 7.303"/><ellipse cx="11.314" cy="21.913" rx="3.086" ry="3.13"/><ellipse cx="22.629" cy="21.913" rx="3.086" ry="3.13"/><path d="M14.4 21.913h5.143"/></g></svg>