<svg width="21" height="23" xmlns="http://www.w3.org/2000/svg"><path d="M20.827 16.393l-1.575-3.199-3.132 1.61a1.01 1.01 0 0 0-.433 1.343.97.97 0 0 0 1.314.443l.367-.189c-.807 2.393-3.088 4.195-5.87 4.533V10.51h1.579a.99.99 0 0 0 .978-1 .99.99 0 0 0-.978-1h-1.579V7.446c1.574-.44 2.734-1.909 2.734-3.654C14.232 1.701 12.567 0 10.52 0S6.808 1.7 6.808 3.792c0 1.745 1.16 3.214 2.734 3.654V8.51H8.043a.99.99 0 0 0-.978 1c0 .552.438 1 .978 1h1.499v10.413c-2.715-.359-4.939-2.113-5.76-4.442l.214.11a.97.97 0 0 0 1.314-.444 1.01 1.01 0 0 0-.434-1.342l-3.131-1.61-1.576 3.198a1.01 1.01 0 0 0 .434 1.342.958.958 0 0 0 .44.107.976.976 0 0 0 .874-.55l.045-.09c1.212 3.362 4.604 5.794 8.598 5.794 3.942 0 7.295-2.37 8.548-5.663a.973.973 0 0 0 .847.509.954.954 0 0 0 .439-.107c.482-.248.676-.85.433-1.342zM8.765 3.793c0-.99.787-1.794 1.755-1.794.968 0 1.755.804 1.755 1.793 0 .988-.787 1.793-1.755 1.793-.968 0-1.755-.805-1.755-1.793z" fill="#FFF" fill-rule="evenodd"/></svg>