<svg width="17" height="15" xmlns="http://www.w3.org/2000/svg"><path d="M14.315 1.129A3.44 3.44 0 0 0 11.769 0C9.845 0 8.283 1.602 8.283 3.578c0 .28.03.553.09.815-2.899-.15-5.468-1.572-7.19-3.74-.3.53-.472 1.146-.472 1.801a3.6 3.6 0 0 0 1.552 2.978 3.423 3.423 0 0 1-1.58-.446v.043c0 1.735 1.202 3.181 2.798 3.509a3.397 3.397 0 0 1-1.575.063c.444 1.42 1.731 2.455 3.258 2.483A6.885 6.885 0 0 1 0 12.567a9.705 9.705 0 0 0 5.347 1.606c6.415 0 9.923-5.45 9.923-10.18 0-.155-.003-.31-.009-.463A7.157 7.157 0 0 0 17 1.678a6.829 6.829 0 0 1-2.003.563A3.57 3.57 0 0 0 16.531.262c-.674.41-1.42.708-2.216.867z" fill="#61687A" fill-rule="evenodd" opacity=".4"/></svg>